<svg width="32" height="32" viewBox="0 0 32 32" fill="none" xmlns="http://www.w3.org/2000/svg">
<path d="M22.6094 6.91187C23.1327 6.6636 23.4952 6.13972 23.4952 5.53168C23.4952 5.12545 23.3307 4.73586 23.0379 4.44862C22.745 4.16137 22.3479 4 21.9337 4C21.5196 4 21.1224 4.16137 20.8296 4.44862C20.5368 4.73586 20.3723 5.12545 20.3723 5.53168C20.3723 6.14814 20.7433 6.67623 21.2774 6.92029C20.6597 10.2025 19.7116 12.6451 16.1833 13.1669C16.1833 13.1669 17.1335 17.8272 21.5777 17.8272C26.0219 17.8272 26.4723 13.2132 26.4723 13.2132C22.8668 13.3941 22.5622 8.9485 22.6094 6.91187V6.91187Z" fill="#F19534"/>
<path d="M9.78725 6.91187C9.2639 6.6636 8.90141 6.13972 8.90141 5.53168C8.90141 5.12545 9.06592 4.73586 9.35876 4.44862C9.65159 4.16137 10.0488 4 10.4629 4C10.877 4 11.2742 4.16137 11.567 4.44862C11.8599 4.73586 12.0244 5.12545 12.0244 5.53168C12.0244 6.14814 11.6533 6.67623 11.1192 6.92029C11.737 10.2025 12.685 12.6451 16.2133 13.1669C16.2133 13.1669 15.2631 17.8272 10.8189 17.8272C6.37473 17.8272 5.92645 13.2153 5.92645 13.2153C9.52986 13.3942 9.83444 8.9485 9.78725 6.91187V6.91187Z" fill="#F19534"/>
<path d="M21.5176 17.8273C21.5369 17.8273 21.5562 17.8294 21.5755 17.8294C22.8002 17.8294 23.7204 17.478 24.411 16.9709L21.5176 17.8273Z" fill="#FFCA28"/>
<path d="M27.9115 5.87053C27.1973 5.77585 26.5152 6.4428 26.3908 7.35592C26.3136 7.92609 26.4702 8.45839 26.7726 8.80133L26.2578 10.8948C26.2578 10.8948 25.4707 15.8412 21.494 16.8174C18.3153 17.598 17.1635 11.8899 16.8847 10.1268C17.4895 9.83227 17.9078 9.22212 17.9078 8.51309C17.9078 7.51792 17.0863 6.71211 16.0718 6.71211C15.0572 6.71211 14.2357 7.51792 14.2357 8.51309C14.2357 9.22633 14.6604 9.84279 15.276 10.1331C15.0551 11.8731 14.0813 17.3918 10.6495 16.8153C7.1662 16.2283 5.64547 10.474 5.29371 8.90864C5.71196 8.572 5.94576 7.97869 5.85996 7.34119C5.73556 6.42597 4.99772 5.76954 4.21269 5.87263C3.42766 5.97572 2.89358 6.80047 3.01799 7.71359C3.10807 8.37844 3.52418 8.90653 4.04539 9.10641L6.77368 25.734C6.77368 25.734 9.15451 27.5791 16.0718 27.5791C22.989 27.5791 25.3699 25.734 25.3699 25.734L28.1046 9.06222C28.5464 8.835 28.8939 8.32374 28.9797 7.69676C29.1063 6.78154 28.6279 5.96521 27.9115 5.87053V5.87053Z" fill="#FFCA28"/>
<path d="M16.1575 23.3436C17.3113 23.3436 18.2467 22.25 18.2467 20.9009C18.2467 19.5519 17.3113 18.4583 16.1575 18.4583C15.0038 18.4583 14.0684 19.5519 14.0684 20.9009C14.0684 22.25 15.0038 23.3436 16.1575 23.3436Z" fill="#26A69A"/>
<path d="M16.1575 19.0624C16.239 19.1508 16.3119 19.3128 16.1575 19.6284C16.0031 19.944 15.1709 20.3711 15.0186 20.4573C14.8663 20.5457 14.7655 20.5057 14.7183 20.4699C14.4931 20.2932 14.5789 19.8935 14.7247 19.6494C15.0379 19.1213 15.7006 18.5764 16.1575 19.0624V19.0624Z" fill="#69F0AE"/>
<path d="M16.0031 21.8122C15.7672 21.9238 14.9929 22.2625 15.2481 22.6643C15.3983 22.9021 15.7093 23.0031 15.9945 23.0157C16.2798 23.0283 16.5608 22.94 16.8139 22.8116C18.015 22.2015 18.1115 20.5983 17.8777 20.4762C17.6375 20.35 17.4745 20.6761 17.3501 20.815C16.9718 21.2305 16.5142 21.5693 16.0031 21.8122V21.8122Z" fill="#00796B"/>
<path d="M27.6649 18.9025C27.9995 17.0867 26.7555 16.6323 26.7555 16.6323C26.7555 16.6323 25.9533 16.4892 25.5758 18.5322C25.1983 20.573 26.0005 20.7161 26.0005 20.7161C26.0005 20.7161 27.3282 20.7182 27.6649 18.9025V18.9025Z" fill="#26A69A"/>
<path d="M27.1115 17.2528C27.4032 17.6357 27.0579 18.2017 26.4981 18.5783C26.3329 18.6898 26.1141 18.6477 26.082 18.5552C25.9919 18.2901 26.0305 17.9892 26.1506 17.7346C26.5066 16.9709 26.9635 17.0593 27.1115 17.2528V17.2528Z" fill="#69F0AE"/>
<path d="M4.42926 18.9569C4.09251 17.1433 5.33869 16.6867 5.33869 16.6867C5.33869 16.6867 6.14088 16.5437 6.51838 18.5866C6.89588 20.6274 6.09369 20.7705 6.09369 20.7705C6.09369 20.7705 4.76386 20.7726 4.42926 18.9569V18.9569Z" fill="#26A69A"/>
<path d="M5.72048 17.3034C6.0079 17.5138 5.88993 17.7894 5.6733 17.9809C5.42664 18.2018 5.23789 18.4437 5.02769 18.6941C4.99551 18.732 4.95905 18.7741 4.90757 18.7846C4.80891 18.8056 4.72955 18.7067 4.69737 18.6121C4.60514 18.347 4.6223 18.0356 4.75958 17.7915C5.14994 17.0951 5.60895 17.2213 5.72048 17.3034V17.3034Z" fill="#69F0AE"/>
<path d="M23.7826 20.6613C23.6346 21.4881 22.959 22.0625 22.2705 21.9447C21.582 21.8269 21.4876 21.122 21.6356 20.2952C21.7836 19.4683 22.116 18.835 22.8024 18.9529C23.4909 19.0707 23.9306 19.8365 23.7826 20.6613V20.6613ZM8.86278 20.6613C9.01078 21.4881 9.68642 22.0625 10.3749 21.9447C11.0634 21.8269 11.1578 21.122 11.0098 20.2952C10.8618 19.4683 10.5294 18.835 9.84299 18.9529C9.15663 19.0707 8.71693 19.8365 8.86278 20.6613Z" fill="#F44336"/>
<path d="M9.86019 20.1099C9.70362 20.2825 9.32183 20.6296 9.1867 20.3645C9.00224 20.0026 9.25748 19.4556 9.54918 19.2747C9.84089 19.0937 10.079 19.2368 10.1197 19.3988C10.1691 19.605 9.99961 19.9542 9.86019 20.1099V20.1099ZM22.0646 20.638C21.8523 20.6065 21.8287 19.889 22.3992 19.3252C22.6716 19.0559 23.062 19.3757 22.9633 19.807C22.8689 20.2172 22.4528 20.6969 22.0646 20.638V20.638Z" fill="#FFA8A4"/>
<path d="M25.7474 22.9863C24.4626 23.6175 21.5155 25.2986 16.0739 25.2986C10.6323 25.2986 7.68527 23.6175 6.40048 22.9863C6.40048 22.9863 5.93933 23.2283 5.93933 23.4808V25.4185C5.93933 25.6773 6.07875 25.915 6.30611 26.0476C7.30991 26.6283 10.3685 28 16.0761 28C21.7836 28 24.8422 26.6283 25.846 26.0476C25.9576 25.983 26.0501 25.8911 26.1145 25.7808C26.1788 25.6704 26.2127 25.5456 26.2128 25.4185V23.4808C26.2085 23.2283 25.7474 22.9863 25.7474 22.9863V22.9863Z" fill="#FFCA28"/>
<path d="M10.8296 25.6434C11.4302 25.7592 11.6125 25.8097 11.5717 26.1379C11.4881 26.7838 10.1218 26.6302 9.31316 26.4219C7.6423 25.9906 7.30341 25.5361 7.30341 25.1301C7.30341 24.7577 7.59511 24.7135 8.04554 24.8692C8.5839 25.0564 9.41612 25.372 10.8296 25.6434V25.6434Z" fill="#FFF59D"/>
<path d="M25.7473 23.4111C25.7473 23.4111 22.1933 25.3846 16.0739 25.3846C9.95453 25.3846 6.40045 23.4111 6.40045 23.4111" stroke="#F19534" stroke-width="4" stroke-miterlimit="10" stroke-linecap="round"/>
<path d="M8.1207 12.7523C9.26178 11.9528 9.87521 10.52 9.92884 8.23928C9.93313 8.03309 9.99318 7.97208 10.1069 7.95945C10.2892 7.94052 10.3192 8.10252 10.3171 8.21824C10.2656 10.6799 9.94599 12.2179 8.68051 13.0847C8.61831 13.1268 8.17432 13.3919 7.98557 13.2088C7.76035 12.9942 8.04777 12.8028 8.1207 12.7523V12.7523ZM9.16526 5.5925C9.12879 5.21169 9.21888 4.5258 10.2377 4.21442C10.5358 4.12395 10.7203 4.26701 10.7546 4.37852C10.8404 4.65625 10.5916 4.76565 10.4779 4.80142C9.69504 5.04968 9.65643 5.4326 9.49557 5.67666C9.3347 5.92072 9.17812 5.70822 9.16526 5.5925V5.5925ZM19.1132 12.2473C20.1449 11.3489 20.8292 10.3453 21.2796 8.06044C21.3203 7.85846 21.3804 7.80376 21.4919 7.80797C21.6742 7.81218 21.6828 7.97839 21.6635 8.092C21.2817 10.5284 20.9192 11.2227 19.6473 12.605C19.5036 12.7607 19.154 12.9016 18.9567 12.7396C18.7786 12.5945 18.9845 12.3609 19.1132 12.2473V12.2473ZM20.6318 5.61144C20.5954 5.23062 20.6854 4.54474 21.7043 4.23335C22.0024 4.14288 22.1869 4.28595 22.2212 4.39746C22.307 4.67518 22.0582 4.78459 21.9445 4.82035C21.1616 5.06862 21.123 5.45154 20.9621 5.6956C20.8034 5.93966 20.6447 5.72716 20.6318 5.61144V5.61144Z" fill="#FFCA28"/>
<path d="M9.11155 17.3915C6.61919 16.2827 5.88564 13.3898 5.49527 12.1337C5.4438 11.9675 5.46953 11.8097 5.63898 11.7592C5.80843 11.7087 5.90924 11.816 5.96286 11.9823C6.24598 12.8933 7.34631 15.9356 9.61774 16.8003C9.7829 16.8634 10.0403 17.017 9.90087 17.28C9.80864 17.4504 9.51265 17.5704 9.11155 17.3915V17.3915ZM5.05557 7.50505C4.93546 7.26099 4.88612 7.02955 4.23193 6.76235C4.06678 6.69503 3.95739 6.54565 4.00243 6.37733C4.04747 6.20901 4.21906 6.08278 4.46787 6.12485C5.27649 6.26161 5.45237 7.06743 5.48669 7.34725C5.51887 7.61656 5.17783 7.74911 5.05557 7.50505V7.50505ZM23.1134 17.3915C25.6057 16.2827 26.3393 13.3898 26.7297 12.1337C26.7811 11.9675 26.7554 11.8097 26.5859 11.7592C26.4165 11.7087 26.3157 11.816 26.2621 11.9823C25.9789 12.8933 24.8786 15.9356 22.6072 16.8003C22.442 16.8634 22.1846 17.017 22.3241 17.28C22.4163 17.4504 22.7123 17.5704 23.1134 17.3915ZM27.1694 7.50505C27.2895 7.26099 27.3388 7.02955 27.993 6.76235C28.1581 6.69503 28.2675 6.54565 28.2225 6.37733C28.1774 6.20901 28.0059 6.08278 27.7571 6.12485C26.9484 6.26161 26.7725 7.06743 26.7382 7.34725C26.7061 7.61656 27.0492 7.74911 27.1694 7.50505ZM15.0722 8.54019C15.203 8.2772 15.4325 7.91742 16.1811 7.76594C16.4685 7.70703 16.5522 7.585 16.5264 7.39985C16.4749 7.01483 15.9859 7.04218 15.7221 7.10319C14.8427 7.30517 14.6475 8.07101 14.611 8.37398C14.5746 8.66222 14.9435 8.80319 15.0722 8.54019V8.54019Z" fill="#FFF59D"/>
</svg>
