<svg width="24" height="24" viewBox="0 0 24 24" fill="none" xmlns="http://www.w3.org/2000/svg">
<path d="M20 2.74997C19.9999 2.63314 19.9725 2.51794 19.9201 2.41356C19.8676 2.30918 19.7914 2.21851 19.6977 2.14877C19.604 2.07903 19.4952 2.03215 19.3802 2.01187C19.2651 1.99159 19.1469 1.99847 19.035 2.03197L9.035 5.03197C8.88047 5.0782 8.74497 5.17303 8.6486 5.30237C8.55222 5.43171 8.50011 5.58867 8.5 5.74997V15.627C7.85129 15.1753 7.0688 14.9565 6.27991 15.0063C5.49102 15.056 4.74221 15.3713 4.15536 15.9009C3.56852 16.4305 3.17821 17.1431 3.04798 17.9227C2.91775 18.7024 3.05527 19.5031 3.43814 20.1947C3.82102 20.8862 4.42671 21.4278 5.1566 21.7312C5.8865 22.0346 6.69761 22.0821 7.45789 21.8658C8.21817 21.6495 8.88285 21.1822 9.34371 20.54C9.80457 19.8978 10.0345 19.1185 9.996 18.329C9.99871 18.3027 10 18.2764 10 18.25V10.308L18.5 7.75797V13.628C17.8513 13.1763 17.0688 12.9575 16.2799 13.0073C15.491 13.057 14.7422 13.3723 14.1554 13.9019C13.5685 14.4315 13.1782 15.1441 13.048 15.9237C12.9177 16.7034 13.0553 17.5041 13.4381 18.1957C13.821 18.8872 14.4267 19.4288 15.1566 19.7322C15.8865 20.0356 16.6976 20.0831 17.4579 19.8668C18.2182 19.6505 18.8829 19.1832 19.3437 18.541C19.8046 17.8988 20.0345 17.1195 19.996 16.33C19.9987 16.3034 20.0001 16.2767 20 16.25V2.74997Z" fill="#D14247" stroke="#222222"/>
</svg>
